<svg xmlns="http://www.w3.org/2000/svg" width="114" height="114" viewBox="0 0 114 114">
  <g id="Group_7" data-name="Group 7" transform="translate(-99 -54)">
    <rect id="Rectangle_12" data-name="Rectangle 12" width="114" height="114" transform="translate(99 54)" fill="#fff"/>
    <g id="Group_6" data-name="Group 6" transform="translate(-5.458 -5.382)">
      <g id="Group_5" data-name="Group 5" transform="translate(121 85)">
        <path id="Path_29" data-name="Path 29" d="M3.25-46.41V7.144h10.8V-15.507h5.775q3.375,0,4.8,1.8A8.45,8.45,0,0,1,26.2-8.757l.3,10.276a29.069,29.069,0,0,0,.3,3.038,5.794,5.794,0,0,0,1.05,2.588h11.7v-.45A4.2,4.2,0,0,1,37.6,3.619q-.3-2.25-.45-6.526Q37.078-5.082,37-6.844t-.225-3.263q-.45-4.5-2.325-6.526a9.781,9.781,0,0,0-5.925-2.625v-.15A10.072,10.072,0,0,0,35.278-23.8a16.151,16.151,0,0,0,2.175-8.813q0-6.976-3.75-10.388T23.2-46.41Zm10.8,23.4V-38.459h5.1q7.5,0,7.5,7.426,0,4.35-2.1,6.188a8.834,8.834,0,0,1-6,1.838Zm41.7-23.4h-10.8V7.144h10.8v-15.9l3.975-6.075L70.755,7.144H82.906l-16.2-30.6L81.256-46.41h-11.7L55.9-24.958h-.15Z" transform="translate(-1.075 46.41)" fill="#0f0f0f"/>
        <path id="Path_28" data-name="Path 28" d="M121.8,389.088c.477.187.937.736,1.309-.389.034-.1.238-.225.277-.184.8.836,1.584-.178,2.372-.025,2.425.471,4.847-.25,7.277-.026a30.716,30.716,0,0,0,3.341-.319c1.866-.037,3.733.057,5.6.072.452,0,.9-.112,1.358-.136a26.408,26.408,0,0,1,4.531-.132c.725.088,1.4.974,2.145,1.536a10.838,10.838,0,0,1-.982,1.543c-.338.353-.8.66-.981-.279-.159-.836-.5-.852-1.039-.649a4.244,4.244,0,0,0-2.483,1.528c-.317.454-1.283.087-1.953.042-.243-.016-.515-.332-.716-.25-2.16.88-4.366.348-6.545.381-6.171.092-12.342.049-18.514.024-1.793-.007-3.585-.2-5.378-.189-2.766.014-5.531.158-8.3.186-1.428.015-2.857-.146-4.286-.145-2.054,0-4.109.119-6.163.112-1.68-.006-3.36-.18-5.04-.171-1.433.008-2.865.237-4.3.234a7.746,7.746,0,0,1-1.935-.509c-.162-.045-.371-.206-.48-.122-1.243.96-2.5.011-3.751.062a33.181,33.181,0,0,1-3.833-.311c-1.2-.092-2.4-.116-3.59-.238a1.4,1.4,0,0,1-.968-.5,2.031,2.031,0,0,1-.265-1.27c.032-.216.506-.414.788-.437.875-.071,1.754-.029,2.63-.078s1.75-.222,2.624-.219c.937,0,1.874.152,2.811.236.2.018.467.15.573.024.617-.734,1.173-.789,1.785.022.057.075.46-.34.7-.525.812.882,1.848.423,2.839.4.279-.007.56,0,.839.015.111.008.264.157.322.1.889-.886,1.751.242,2.65.05.918-.2,1.877-.017,2.806-.153a19.809,19.809,0,0,1,4.46.252c.5.039,1.014-.162,1.516-.122.778.061,1.552.318,2.328.33a2.148,2.148,0,0,0,1.46-.467c.971-.883,2-.2,2.982-.423,1.383-.32,2.692,1.011,4.136.215.438-.242,1.122.346,1.693.556.163.06.363.249.48.177.837-.515,1.633-.955,2.326.377.043.083.609-.145.764-.411.306-.526.544-.413.95-.245a2.876,2.876,0,0,0,1.736.243,9.249,9.249,0,0,1,5.635.186A4.218,4.218,0,0,0,121.8,389.088Z" transform="translate(-68.498 -326.239)"/>
      </g>
    </g>
  </g>
</svg>
